<?xml version="1.0" encoding="UTF-8"?>
<svg width="500mm" height="150.29mm" version="1.1" viewBox="0 0 500 150.29" xmlns="http://www.w3.org/2000/svg" xmlns:cc="http://creativecommons.org/ns#" xmlns:dc="http://purl.org/dc/elements/1.1/" xmlns:rdf="http://www.w3.org/1999/02/22-rdf-syntax-ns#">
<metadata>
<rdf:RDF>
<cc:Work rdf:about="">
<dc:format>image/svg+xml</dc:format>
<dc:type rdf:resource="http://purl.org/dc/dcmitype/StillImage"/>
<dc:title/>
</cc:Work>
</rdf:RDF>
</metadata>
<g transform="translate(7.5136 -13.334)">
<g transform="matrix(3.9723 0 0 3.9723 -7.434 13.415)" stroke="#070000">
<g stroke="#070000">
<path d="m0.079511 0.079865h26.242c4.5654-0.056596 6.9991 3.641 8.0932 7.5839l9.2818-7.5839 3.0939-0.056596-11.583 9.4893 5.6219 15.488c0.41504 1.0376 2.528 3.9051 5.471 3.9051l75.386-0.09433c0.94327-0.981 2.4902-0.37731 2.5091 0.75461 0 1.7922-1.9809 1.396-2.377 1.0565l-86.573 0.09433c-2.943 0.07546-6.5274-2.66-7.8669-5.8671l-2.8109-6.5274-14.866 12.338-3.1505 0.056596 17.394-14.206-5.0936-13.055c-0.35844-0.75461-1.1697-1.8299-2.9807-1.8488l-15.847 0.056596z" stroke-width=".082864"/>
<path d="m49.62 16.229 9.8855 0.03773c0.96213-0.0566 1.2074 1.1508 0.90554 1.7545l-3.7165 9.4327-10.15-0.03773c-1.4149 0.03773-1.6036-0.9244-1.2262-1.9809l1.5847-4.0183 5.2634 0.03773c1.0942 0 1.1319 1.3017-0.03773 1.3206h-1.2074l-1.3017 3.3392c-0.13206 0.35844 0.07546 0.71688 0.58482 0.71688h1.7922l3.6033-9.2629c0.32071-0.71688-0.39617-0.67915-0.64142-0.67915l-5.4332 0.03773c-0.41504-0.03773-0.35844-0.69802 0.09433-0.69802z" stroke-width=".082864"/>
<path d="m64.127 16.342 9.9043 0.03773c0.86781 0.01886 1.396 1.3394 0.77348 2.7355l-3.2071 8.1121h-4.6975l3.4335-8.6026c0.47163-1.2074-0.66029-1.5847-1.6413-1.6602l-3.4712 8.3762c-0.4905 1.0565-1.9997 2.0941-2.9619 2.0941h-2.8675z" stroke-width=".082864"/>
<path d="m105.07 34.698h2.6412c0.22638 0 0.3773 0.35844 0.20751 0.73575l-0.84893 2.1507h-1.2451l0.90555-2.2827c0.13205-0.32071-0.1698-0.41504-0.43391-0.45277l-0.9244 2.2261c-0.13206 0.28298-0.52823 0.56596-0.79235 0.56596h-0.77347z" stroke-width=".082864"/>
<path d="m121.4 28.227c0.39617-0.41504 0.92441-0.64142 1.4526-0.64142 0.5471-0.01886 1.0942 0.16979 1.5281 0.58483 0.84894 0.81121 0.90554 2.1507 0.0943 2.9996-0.81122 0.84894-2.1506 0.88667-2.9996 0.09433-0.47163-0.45277-0.981 0.01886-0.64142 0.41504 0.0377 0.03773 0.0755 0.07546 0.11319 0.11319 1.1508 1.0942 2.9807 1.0565 4.0749-0.09433 1.0942-1.1508 1.0376-2.9807-0.1132-4.0749-0.58483-0.5471-1.3206-0.81121-2.0563-0.79235-0.73574 0.01886-1.4715 0.32071-2.0186 0.90554-0.52823 0.5471 0.22638 0.88667 0.56596 0.4905z" stroke-width=".082864"/>
<path d="m94.123 16.399 10.225 0.03773c0.6603 0 1.2451 0.88667 0.94328 1.6602l-1.4338 3.7731c-0.13206 0.22638-0.35844 0.41504-0.67915 0.41504l-5.0559 0.03773c-0.99987 0.01886-1.0187-1.3772 0-1.3583h1.1319l1.2828-3.3014c0.28297-0.73575 0-0.67915-0.6037-0.71688h-1.3394l-3.4712 9.2063c-0.11319 0.45277 0.05662 0.71688 0.60369 0.71688h5.9426l0.0188 0.56596h-9.9043c-0.96213 0-1.5658-0.981-1.2262-1.7356z" stroke-width=".082864"/>
<path d="m78.39 34.66 2.7921 0.01886c0.18865 0 0.33958 0.24525 0.26412 0.45277l-0.39617 1.0376c-0.03773 0.0566-0.09433 0.11319-0.18865 0.11319l-1.3772 0.01886c-0.26412 0-0.28298-0.37731 0-0.37731h0.30184l0.35844-0.90554c0.07546-0.20752 0-0.18865-0.16979-0.18865h-0.35844l-0.90554 2.4148c-0.03773 0.13206 0.01886 0.18865 0.16979 0.18865h1.5847v0.24525h-2.7166c-0.26412 0-0.4339-0.26412-0.33958-0.47164z" stroke-width=".082864"/>
<path d="m112.8 17.059-3.226 8.3385c-0.60369 1.3583-1.9243 1.9809-2.6034 1.9809h-2.66c-0.32071 0-0.26411-0.13206-0.18865-0.28298l4.1504-10.753 9.527 0.09433c0.90554 0 1.9054 0.41504 1.4149 1.6602l-0.26412 0.75461-0.99986 2.6034h-4.339c-0.28299 0-0.20753-0.22638-0.0943-0.47164l1.0376-2.4525c0.4905-1.1885-1.1319-1.679-1.7545-1.4715z" stroke-width=".082864"/>
<path d="m98.161 34.811-0.90553 2.3204c-0.16979 0.37731-0.52823 0.5471-0.71689 0.5471h-0.73575c-0.09433 0-0.07547-0.03773-0.05662-0.07546l1.1508-2.9807 2.6411 0.01886c0.24526 0 0.52824 0.11319 0.39618 0.45277l-0.07547 0.20752-0.28298 0.71688h-1.2074c-0.07547 0-0.05662-0.0566-0.01884-0.13206l0.28298-0.67915c0.15092-0.32071-0.30185-0.45277-0.47164-0.39617z" stroke-width=".082864"/>
<path d="m84.974 32.095-2.1318 5.5276h-1.4715l2.1695-5.5276z" stroke-width=".082864"/>
<path d="m92.595 34.943h-2.1129c-0.22638 0.01886-0.22638 0.13206-0.33958 0.30185l-0.50937 1.3206c-0.15092 0.39617-0.07546 0.71688 0.26412 0.71688h1.3206c0.20752 0 0.30184 0.47163 0 0.47163l-2.8298 0.01886c-0.41504 0-0.56596-0.50936-0.26412-1.2828l0.56596-1.4904c0.15092-0.33958 0.50936-0.4339 0.99986-0.4339h3.0939l0.5471-1.4149h1.5847l-0.56597 1.4715h1.7922c0.16978 0 0.22638 0.33958-0.01884 0.33958h-1.9054l-0.62255 1.6602c-0.18865 0.50936 0 0.69802 0.52823 0.69802h1.0565v0.39617l-2.9053 0.01886c-0.5471 0-0.60369-0.41504-0.24525-1.2262z" stroke-width=".082864"/>
<path d="m108.35 34.698 1.7168-0.03773c0.47164 0 0.71689-0.0566 0.39618 0.81121l-0.84894 2.1318h-1.4715l0.86781-2.1884c0.16979-0.39617-0.0189-0.39617-0.32071-0.58483-0.1132-0.03773-0.22639-0.07546-0.33959-0.13206z" stroke-width=".082864"/>
<path d="m111.82 32.019-0.50937 1.3017h-1.4904l0.50937-1.3017z" stroke-width=".082864"/>
<path d="m114.8 34.962h-1.6036c-0.20753 0-0.24525 0.20752-0.35845 0.47163l-0.3773 0.99987c-0.24525 0.66029-0.0943 0.88667 0.22639 0.88667h1.2828c0.28299 0 0.32072 0.39617 0.0378 0.39617h-2.7921c-0.45276 0-0.84894-0.15092-0.39618-1.3017l0.50938-1.3017c0.20751-0.4905 0.67915-0.56596 1.0942-0.56596h2.4714c0.0943 0 0.1132 0.41504-0.0943 0.41504z" stroke-width=".082864"/>
<path d="m119.21 34.547h-3.0373c-0.41504 0-0.60369 0.50936-0.77347 0.9244-0.39618 0.96213-0.24525 0.99986 0.22638 0.99986h1.4526c0.0566 0-0.18865 0.83008-0.67915 0.83008h-1.6224c-0.16978 0-0.32071 0.41504-0.22638 0.41504h2.9996c0.58483 0 1.3206-1.7733 0.86782-1.7733h-1.7545c-0.22638 0 0.22639-1.0565 0.4905-1.0565h1.83c0.11319 0.0566 0.39617-0.33958 0.22638-0.33958z" stroke-width=".082864"/>
<path d="m84.955 34.66 2.7921 0.01886c0.18865 0 0.33958 0.24525 0.26412 0.45277l-0.39617 1.0376c-0.03773 0.0566-0.09433 0.11319-0.18866 0.11319l-1.3772 0.01886c-0.26412 0-0.28298-0.37731 0-0.37731h0.30185l0.35844-0.90554c0.07546-0.20752 0-0.18865-0.16979-0.18865h-0.35844l-0.90554 2.4148c-0.03773 0.13206 0.01886 0.18865 0.16979 0.18865h1.5847v0.24525h-2.7166c-0.26412 0-0.4339-0.26412-0.33958-0.47164z" stroke-width=".082864"/>
<path d="m122.14 30.691c-0.31545-0.12012-5.0925-0.13188-44.127-0.10864-41.306 0.02459-43.803 0.01742-44.297-0.12715-1.4175-0.41486-2.9149-1.3396-4.1254-2.5477-1.2621-1.2597-1.6048-1.865-3.3697-5.9509-0.86201-1.9957-1.6027-3.6403-1.646-3.6547-0.0433-0.01443-3.4054 2.7343-7.4713 6.1083l-7.3925 6.1346-1.437 0.05658c-0.79037 0.03112-1.4454 0.0474-1.4555 0.03619-0.01353-0.014994 15.532-12.733 17.018-13.923l0.20888-0.16724-2.5858-6.6279c-1.4222-3.6454-2.6961-6.7872-2.8309-6.9817-0.34943-0.50425-0.67875-0.79129-1.2355-1.0769l-0.48637-0.24953-16.758-0.047707v-1.4151l27.546 0.049832 0.66081 0.20381c1.2923 0.39857 2.5624 1.229 3.4724 2.2704 0.8367 0.95753 1.7275 2.6095 2.2354 4.1457 0.16275 0.49221 0.33634 0.88567 0.38574 0.87436 0.0494-0.011309 2.1604-1.7135 4.6912-3.7827l4.6013-3.7621 2.7063 0.048725-5.6049 4.592c-3.0827 2.5256-5.6242 4.6421-5.6477 4.7034-0.06563 0.17101 5.5719 15.621 5.9108 16.199 0.38204 0.65147 1.8313 2.0995 2.4851 2.4831 0.28 0.16426 0.77736 0.40302 1.1053 0.53059l0.59617 0.23194 76.392-0.06285 0.34568-0.22877c0.95371-0.63114 2.2306 0.09133 2.0592 1.1651-0.032 0.20051-0.11895 0.45742-0.19324 0.57092-0.28247 0.43158-1.0719 0.57072-1.7573 0.30971z" stroke-width=".082864"/>
<path d="m59.584 27.216c0.02981-0.0777 1.0796-2.5519 2.3329-5.4982l2.2787-5.3569 0.70745 0.05352c0.3891 0.02944 2.6643 0.05377 5.0559 0.05406l4.3484 5.31e-4 0.26589 0.26589c0.38168 0.38168 0.51606 1.0365 0.34806 1.6962-0.06965 0.27347-0.85998 2.3513-1.7563 4.6175l-1.6296 4.1202-2.2329 3.53e-4c-1.2281 1.02e-4 -2.2329-0.02681-2.2329-0.05984s0.77599-2.0171 1.7244-4.4091c0.94843-2.392 1.7244-4.4561 1.7244-4.587 0-0.60157-0.5886-1.0687-1.471-1.1676l-0.43023-0.04818-1.6291 3.9642c-0.89601 2.1803-1.7387 4.186-1.8725 4.457-0.30018 0.60773-1.1199 1.3867-1.8221 1.7315-0.4986 0.24483-0.55737 0.25251-2.1382 0.27945-1.4595 0.02487-1.6199 0.01328-1.5713-0.11356z" stroke-width=".082864"/>
<path d="m45.785 27.217c-0.38417-0.16759-0.59015-0.58937-0.53346-1.0924 0.02456-0.21793 0.41686-1.3455 0.87178-2.5056l0.82712-2.1094 2.6974 0.0012c2.9142 0.0014 3.0662 0.0233 3.2211 0.46356 0.07001 0.19908 0.04926 0.27744-0.12162 0.45933-0.1871 0.19916-0.28309 0.22162-1.0445 0.24447l-0.83848 0.02516-0.69358 1.7686c-0.38146 0.97275-0.6949 1.8202-0.69652 1.8832-0.0016 0.06301 0.09596 0.21347 0.21685 0.33435 0.21332 0.21332 0.25164 0.21906 1.3008 0.19495l1.0811-0.02484 1.8385-4.7276c1.0112-2.6002 1.8385-4.8173 1.8385-4.9269 0-0.10962-0.07697-0.2405-0.17105-0.29085-0.10828-0.05795-1.2731-0.09154-3.1741-0.09154-3.1827 0-3.2709-0.01193-2.9846-0.40344 0.10685-0.14612 0.41832-0.15227 5.2492-0.10356 3.4812 0.0351 5.1944 0.08321 5.318 0.14937 0.25346 0.13564 0.44964 0.55117 0.4486 0.95016-7.08e-4 0.22766-0.60847 1.8759-1.8851 5.1113l-1.8842 4.7753-5.3 0.01901c-4.3611 0.01566-5.3499-0.0027-5.5816-0.10386z" stroke-width=".082864"/>
<path d="m91.139 27.166c-0.40826-0.2489-0.68357-0.87764-0.55312-1.2632 0.05242-0.15493 0.88115-2.343 1.8416-4.8625l1.7463-4.5808 5.1732 0.02654c4.0714 0.02089 5.2166 0.05129 5.3769 0.14272 0.2913 0.16614 0.54728 0.62864 0.5475 0.98921 3.6e-4 0.42315-1.4547 4.2443-1.692 4.4437-0.16694 0.14026-0.44693 0.15476-2.9905 0.15476-2.6064 0-2.8167-0.01151-2.9527-0.16172-0.19426-0.21465-0.18614-0.65918 0.01538-0.84154 0.12354-0.1118 0.33758-0.14635 0.90675-0.14635h0.74502l0.5275-1.3486c0.80032-2.0461 0.9318-2.464 0.8331-2.6485-0.0747-0.1396-0.21289-0.15901-1.1212-0.15746l-1.036 0.0018-1.7484 4.663c-0.9616 2.5646-1.7475 4.7464-1.7465 4.8483 9.38e-4 0.1019 0.07462 0.25112 0.16357 0.33162 0.14403 0.13034 0.50195 0.14636 3.272 0.14636 1.8299 0 3.1103 0.03343 3.1103 0.0812 0 0.04466 0.0242 0.14414 0.0536 0.22108 0.0486 0.12656-0.43348 0.13985-5.0627 0.13955-4.9798-3.54e-4 -5.1242-0.0052-5.4098-0.17922z" stroke-width=".082864"/>
<path d="m105.56 23.609c0.77526-2.0063 1.7151-4.4371 2.0886-5.4018l0.67903-1.754 4.4761 0.01049c5.5028 0.01291 5.9559 0.05281 6.308 0.55551 0.2717 0.38791 0.18024 0.75717-0.83273 3.3621l-0.36966 0.95064h-2.2042c-1.2123 0-2.2042-0.02076-2.2042-0.04613 0-0.02538 0.26702-0.67203 0.59336-1.437 0.72437-1.6979 0.76049-2.0095 0.28364-2.4465-0.33931-0.31096-1.0811-0.54867-1.435-0.45984-0.17361 0.04358-0.40561 0.58125-1.6924 3.9223-0.82016 2.1295-1.6017 4.12-1.7367 4.4234-0.31089 0.69854-1.0197 1.4559-1.635 1.747-0.44749 0.2117-0.54234 0.22172-2.0985 0.22172h-1.6298z" stroke-width=".082864"/>
<path d="m122.13 32.388c-0.47916-0.15463-0.72117-0.29053-1.0389-0.58339-0.321-0.29588-0.36158-0.51239-0.11694-0.62386 0.13827-0.063 0.1893-0.04734 0.42208 0.12956 0.14563 0.11067 0.41955 0.27718 0.60871 0.37002 0.30032 0.14741 0.41922 0.16881 0.93795 0.16881 0.52253 0 0.63651-0.02085 0.94681-0.17324 0.43077-0.21155 0.82289-0.62447 1.0424-1.0977 0.23822-0.51361 0.23475-1.2035-8e-3 -1.7305-0.2262-0.48974-0.65045-0.91579-1.1294-1.1342-0.31581-0.14403-0.46885-0.17436-0.88232-0.17482-0.57549-7.08e-4 -0.9925 0.15622-1.4598 0.54912-0.46011 0.38688-0.90453 0.24893-0.63355-0.19667 0.38458-0.63239 1.64-1.1118 2.51-0.95858 2.3582 0.4154 3.2219 3.2637 1.4753 4.8653-0.69424 0.63658-1.7842 0.87719-2.6736 0.5902z" stroke-width=".082864"/>
<path d="m77.548 37.509c-0.13991-0.13991-0.17094-0.03227 0.55015-1.9083l0.31245-0.8129 0.56862-0.01798c0.31274-0.0099 0.56861-0.0037 0.56861 0.01381 0 0.01749-0.2119 0.5985-0.47089 1.2911-0.36776 0.98354-0.4551 1.2784-0.39879 1.3462 0.05496 0.06622 0.27096 0.08687 0.9086 0.08687 0.51598 0 0.8365 0.02396 0.8365 0.06253 0 0.0398-0.50024 0.06253-1.3757 0.06253-1.288 0-1.3836-0.0079-1.4996-0.12391z" stroke-width=".082864"/>
<path d="m81.514 37.461c0.01948-0.06019 0.49364-1.2772 1.0537-2.7044l1.0183-2.595 0.63886-0.01782c0.35138-0.0098 0.63886-0.0036 0.63886 0.01383 0 0.02274-1.5841 4.1525-2.0463 5.3347-0.02174 0.0556-0.21936 0.07816-0.68465 0.07816-0.59475 0-0.65088-0.0099-0.61867-0.10943z" stroke-width=".082864"/>
<path d="m79.408 36.223c-0.11826-0.12304-0.03784-0.21555 0.18759-0.21577l0.23449-1.76e-4 0.20932-0.53283c0.11513-0.29306 0.19339-0.57434 0.17392-0.62508-0.02958-0.07707 0.05652-0.09225 0.52321-0.09225 0.7463 0 0.7646 0.03337 0.46008 0.83879l-0.22664 0.59942-0.25729 3.53e-4c-0.14151 1.77e-4 -0.4824 0.01747-0.75754 0.03837-0.27513 0.0209-0.52135 0.01604-0.54714-0.01079z" stroke-width=".082864"/>
<path d="m79.879 34.787c-0.24206-0.0039-0.26273-0.0066-0.27803-0.03517-0.0162-0.03028-0.01043-0.03089 0.29128-0.03089h0.30781l-0.02962 0.03518c-0.01629 0.01934-0.02969 0.03518-0.02978 0.03518s-0.11784-2e-3 -0.26166-0.0043z" stroke-width=".082864"/>
<path d="m81.235 34.721c-0.01719-0.0074-0.04885-0.01309-0.07035-0.01268-0.03547 7.07e-4 -0.03473 0.0019 0.0078 0.01268 0.0651 0.01658 0.10108 0.01658 0.06253 0z" stroke-width=".082864"/>
<path d="m80.319 34.711c0.0036-0.0031-0.01928-0.0055-0.0508-0.0055-0.03153 0-0.05732 0.0068-0.05732 0.01524 0 0.01346 0.09054 0.0053 0.10812-0.0097z" stroke-width=".082864"/>
<path d="m79.164 34.706c0.21708-0.0098 0.17767-0.01141-0.24882-0.01001-0.36868 0.0012-0.5084 0.0066-0.51279 0.01976-0.0063 0.01873 0.18669 0.01626 0.76161-0.0097z" stroke-width=".082864"/>
<path d="m79.672 34.788c-0.10059-0.0147-0.11373-0.06232-0.01954-0.07081 0.03654-0.0033-3.53e-4 -0.0059-0.08207-0.0059-0.08168 4.8e-5 -0.1161 0.0026-0.07649 0.0058 0.05721 0.0046 0.07624 0.01363 0.09253 0.04408 0.01638 0.03061 0.03176 0.03785 0.07649 0.03597 0.05303-0.0023 0.05351-0.0027 0.0091-0.0092z" stroke-width=".082864"/>
<path d="m79.445 35.967c0.02026-0.0075 0.02013-0.0089-8.84e-4 -0.0099-0.01341-7.08e-4 -0.03802 0.0097-0.05471 0.02308-0.02986 0.02392-0.02984 0.02408 8.84e-4 0.0099 0.01719-0.0079 0.04181-0.0183 0.05471-0.02308z" stroke-width=".082864"/>
<path d="m80.43 37.48c0-0.01848-0.02073-0.02318-0.0977-0.02222-0.05374 7.08e-4 -0.09026 0.0043-0.08116 0.0082 0.0138 0.0057 0.12635 0.02987 0.16714 0.03583 0.0065 8.84e-4 0.01173-0.0088 0.01173-0.02174z" stroke-width=".082864"/>
<path d="m77.612 37.684c-0.15269-0.054485-0.2535-0.1916-0.25354-0.34487-2.9e-5 -0.09587 0.01998-0.14955 1.0033-2.6921 9e-3 -0.02319 2.7906-0.01051 2.885 0.01316 0.13111 0.03287 0.24556 0.19677 0.24586 0.3521 1.25e-4 0.06616-0.03785 0.18014-0.21051 0.63187-0.21972 0.57486-0.24536 0.62372-0.34297 0.65374-0.02652 0.0082-0.37594 0.0196-0.77649 0.02544-0.70954 0.01033-0.72983 0.0098-0.78945-0.02079-0.07832-0.0402-0.12108-0.11285-0.11972-0.20339 0.0012-0.0826 0.0378-0.13976 0.11435-0.17879 0.04136-0.02109 0.09287-0.02736 0.22556-0.02744l0.17196-1.06e-4 0.16809-0.42591c0.19827-0.50238 0.21829-0.5587 0.20802-0.58544-0.0059-0.01538-0.06735-0.02024-0.2564-0.02024h-0.24864l-0.44719 1.1924c-0.24596 0.65582-0.45104 1.2133-0.45574 1.2389-0.01173 0.0638 0.0081 0.08682 0.0881 0.10228 0.03759 0.0072 0.42887 0.01351 0.86952 0.01388l0.80117 7.08e-4v0.29702l-1.4108-7.08e-4c-1.1377-5.31e-4 -1.4222-0.0048-1.4695-0.02162z" stroke-width=".082864"/>
<path d="m80.403 37.478c-0.01075-0.0043-0.02833-0.0043-0.03908 0s-2e-3 0.0079 0.01954 0.0079c0.0215 0 0.03029-0.0036 0.01954-0.0079z" stroke-width=".082864"/>
<path d="m78.116 37.707c-0.5579-0.0092-0.55245-0.0083-0.65537-0.11115-0.06877-0.06876-0.09718-0.13078-0.10627-0.23191-0.0071-0.07891 2e-3 -0.1138 0.0937-0.36092 0.13558-0.36524 0.88616-2.3141 0.90461-2.3488 0.01365-0.02567 0.0803-0.02725 1.0809-0.02568 0.58651 8.84e-4 1.2399 0.0062 1.452 0.01173l0.38561 0.01005 0.06755 0.0475c0.04437 0.03121 0.08313 0.07797 0.11296 0.13631 0.06221 0.12165 0.05985 0.20928-0.01109 0.41022-0.10482 0.29697-0.34016 0.89066-0.37998 0.95861-0.06888 0.11753-0.0541 0.11551-0.90458 0.1239l-0.75036 0.0074-0.05471-0.03721c-0.10218-0.06949-0.13563-0.19143-0.08064-0.29398 0.04498-0.08387 0.11452-0.11064 0.3149-0.12121 0.13683-0.0072 0.17638-0.01445 0.18658-0.03413 0.03009-0.05808 0.34705-0.8825 0.35547-0.92463l0.0092-0.04612h-0.49658l-0.20086 0.53542c-0.49783 1.327-0.69773 1.874-0.69773 1.9092 0 0.06912 0.04038 0.07224 0.93247 0.07224h0.83401v0.32828l-0.94186-0.0034c-0.51803-0.0019-1.1705-0.0071-1.4499-0.01173z" stroke-width=".082864"/>
<path d="m82.822 37.582c0-0.01958-0.01658-0.01958-0.04689 0-0.01896 0.01225-0.01671 0.01519 0.01173 0.01538 0.01934 1.33e-4 0.03517-0.0067 0.03517-0.01538z" stroke-width=".082864"/>
<path d="m81.482 37.559c-0.02507-0.03417-0.03013-0.0356-0.04713-0.01333-0.025 0.03278-0.01175 0.05161 0.03633 0.05161 0.03849 0 0.0386-3.53e-4 0.01081-0.03828z" stroke-width=".082864"/>
<path d="m81.355 37.64c-0.01224-0.01474 0.26742-0.74332 1.0682-2.7829 0.5966-1.5196 1.089-2.7698 1.0942-2.7783 6e-3 -0.0097 0.28232-0.01538 0.75295-0.01538 0.7006 0 0.743 0.0016 0.73566 0.02736-0.01227 0.04309-2.1236 5.5112-2.1398 5.5418-0.01346 0.02546-0.06564 0.02736-0.75455 0.02736-0.58138 0-0.74364-0.0043-0.75666-0.01997z" stroke-width=".082864"/>
<path d="m81.47 37.566c-0.0053-0.0086-0.01628-0.01564-0.02438-0.01564s-0.01472 7e-3 -0.01472 0.01564c0 0.0086 0.01097 0.01564 0.02438 0.01564s0.02002-7e-3 0.01472-0.01564z" stroke-width=".082864"/>
<path d="m81.642 37.665c-0.15454-0.0031-0.2872-0.01187-0.29481-0.01947-0.01769-0.01769 0.38885-1.07 1.631-4.2219 0.24227-0.61475 0.46116-1.1711 0.48644-1.2364l0.04595-0.11867 0.45379-0.01069c0.54764-0.01289 1.0461 0.0014 1.0461 0.02987 0 0.01848-0.65225 1.7172-1.6564 4.3139-0.25933 0.67064-0.47989 1.2275-0.49013 1.2375-0.02083 0.02035-0.73801 0.03548-1.2219 0.02578z" stroke-width=".082864"/>
<path d="m84.174 37.599c-0.1064-0.04911-0.17978-0.15906-0.17978-0.2694 0-0.02791 0.21829-0.61649 0.49631-1.3382l0.49631-1.2884 1.3679 0.0097c0.75233 0.0053 1.3905 0.01316 1.4182 0.0174 0.10833 0.01658 0.20759 0.15088 0.20759 0.28088 0 0.10697-0.38803 1.1236-0.45069 1.1807l-0.04428 0.04042-0.45989 0.01036c-0.66348 0.01496-1.0277 0.01302-1.0626-0.0057-0.04582-0.02452-0.08089-0.10392-0.06927-0.15681 0.01978-0.09007 0.06753-0.10848 0.28137-0.10848 0.13445 0 0.19598-0.0058 0.20683-0.01954 0.0085-0.01075 0.1008-0.23606 0.20514-0.50069 0.19325-0.49015 0.21359-0.56663 0.16753-0.62969-0.02058-0.02817-0.04316-0.03035-0.31505-0.03035h-0.29289l-0.46077 1.2272c-0.31445 0.83747-0.46137 1.2481-0.46267 1.2932-0.0016 0.05284 0.0068 0.07477 0.04144 0.10943l0.04334 0.04335 1.672 0.0086v0.15553l-1.3718-3.54e-4c-1.3002-3.54e-4 -1.375-0.0019-1.4343-0.0292z" stroke-width=".082864"/>
<path d="m87.688 34.709c-0.05338-3e-3 -0.14483-0.0031-0.20322-5e-5 -0.0584 3e-3 -0.01472 0.0055 0.09706 0.0055 0.11177 2.6e-5 0.15955-0.0024 0.10617-0.0054z" stroke-width=".082864"/>
<path d="m87.991 34.945c-0.01111-0.06843-0.07478-0.16906-0.12347-0.19512-0.02511-0.01344-0.02002-0.0037 0.01765 0.03403 0.05575 0.05576 0.09533 0.13306 0.09533 0.18622 0 0.01747 0.0044 0.03176 0.0099 0.03176 0.0054 0 0.0057-0.0256 7.07e-4 -0.05691z" stroke-width=".082864"/>
<path d="m87.99 35.065c4e-3 -0.03394-0.0053-0.01612-0.02451 0.04681-0.01703 0.05588-0.03063 0.10513-0.03023 0.10943 0.0022 0.02414 0.04931-0.11023 0.05473-0.15624z" stroke-width=".082864"/>
<path d="m86.112 35.964c0.0086-0.0029-0.01602-0.0057-0.05471-0.0063-0.03869-5.31e-4 -0.08009 0.0052-0.092 0.01271-0.01986 0.01257 0.10694 7e-3 0.14671-0.0065z" stroke-width=".082864"/>
<path d="m87.667 35.948c0-0.0086-0.0068-0.0051-0.01516 0.0078-0.0083 0.01289-0.01516 0.03049-0.01516 0.03908 0 0.0086 0.0068 0.0051 0.01516-0.0078 0.0083-0.01289 0.01516-0.03049 0.01516-0.03908z" stroke-width=".082864"/>
<path d="m85.88 36.093c-0.0043-0.01075-0.0079-2e-3 -0.0079 0.01954 0 0.0215 0.0036 0.03029 0.0079 0.01954s0.0043-0.02833 0-0.03909z" stroke-width=".082864"/>
<path d="m85.907 36.182c-0.0051-0.01327-0.01261-0.02077-0.01672-0.01668-0.0041 0.0041-0.0028 0.01494 0.0028 0.02412 0.01542 0.02494 0.02442 0.02009 0.01385-0.0074z" stroke-width=".082864"/>
<path d="m87.584 36.15c0.01841-0.03376 0.03797-0.07897 0.04344-0.10047 0.0054-0.0215-0.0086-0.0039-0.03138 0.03908-0.02273 0.04299-0.05285 0.0915-0.06689 0.1078-0.02126 0.02466-0.02162 0.02841-0.0021 0.0223 0.01289-4e-3 0.03851-0.03496 0.05693-0.06873z" stroke-width=".082864"/>
<path d="m87.43 36.242c-0.02348-0.0036-0.0657-0.0037-0.0938-1.6e-4 -0.0281 0.0035-0.0089 0.0064 0.04271 0.0065 0.05159 9.4e-5 0.07458-0.0027 0.05109-0.0064z" stroke-width=".082864"/>
<path d="m86.632 36.259c-0.0052-0.0052-0.01868-0.0057-0.02996-0.0012-0.01247 5e-3 -0.0088 0.0087 0.0094 0.0094 0.01648 7.07e-4 0.02572-3e-3 0.02051-0.0082z" stroke-width=".082864"/>
<path d="m86.484 36.258c-0.01059-0.0043-0.03169-0.0045-0.0469-5.31e-4 -0.01521 0.0039-0.0066 0.0075 0.01925 0.0078 0.02579 3.55e-4 0.03824-0.0029 0.02766-0.0072z" stroke-width=".082864"/>
<path d="m86.171 36.257c-0.03654-0.0033-0.09634-0.0033-0.13288 0-0.03654 0.0033-0.0067 6e-3 0.06644 6e-3 0.07308 0 0.10298-0.0027 0.06644-6e-3z" stroke-width=".082864"/>
<path d="m84.166 36.823c0-0.0086-0.0068-0.0051-0.01516 0.0078-0.0083 0.01289-0.01516 0.03049-0.01516 0.03908 0 0.0086 0.0068 0.0051 0.01516-0.0078 0.0083-0.01289 0.01516-0.03048 0.01516-0.03908z" stroke-width=".082864"/>
<path d="m84.102 36.997c0.0098-0.02484 0.01498-0.04794 0.01159-0.05134-0.0089-0.0089-0.13545 0.33472-0.13505 0.36672 1.77e-4 0.01474 0.02405-0.04002 0.05303-0.12171 0.02898-0.08168 0.06068-0.16883 0.07044-0.19367z" stroke-width=".082864"/>
<path d="m83.989 37.36c-5e-3 -0.01247-0.0087-0.0088-0.0094 0.0094-7.08e-4 0.01648 3e-3 0.02571 0.0083 0.02052 0.0052-0.0052 0.0057-0.01868 0.0012-0.02996z" stroke-width=".082864"/>
<path d="m85.346 37.633c-0.32655-0.01028-1.1615-0.01167-1.1368-0.0019 0.01478 0.0058 0.30826 0.0097 0.65218 0.0084 0.34392-0.0012 0.56199-0.0041 0.48461-0.0066z" stroke-width=".082864"/>
<path d="m84.178 37.684c-0.15252-0.05443-0.25336-0.19148-0.25375-0.34487-1.76e-4 -0.08622 0.04093-0.20055 0.49805-1.3837 0.27406-0.70933 0.50155-1.2981 0.50553-1.3085 9e-3 -0.02335 2.7907-0.01049 2.8857 0.01335 0.08167 0.02049 0.17213 0.10684 0.21407 0.20431 0.05923 0.13768 0.04503 0.19852-0.18694 0.80103-0.21265 0.55232-0.23934 0.60263-0.33543 0.63217-0.02652 0.0082-0.37594 0.0196-0.77649 0.02543-0.72097 0.01051-0.72891 0.01028-0.79303-0.02243-0.07715-0.03936-0.11733-0.10827-0.11744-0.20139-9.3e-5 -0.07973 0.03879-0.13995 0.11567-0.17915 0.04139-0.0211 0.09278-0.02735 0.22556-0.02738l0.17196-4.9e-5 0.16941-0.4293c0.18-0.45614 0.21834-0.56642 0.20465-0.58858-0.0047-0.0076-0.11979-0.01381-0.25577-0.01381h-0.24722l-0.44719 1.1924c-0.24596 0.65582-0.45104 1.2133-0.45574 1.2389-0.01173 0.0638 0.0081 0.08682 0.0881 0.10228 0.03758 0.0072 0.42887 0.01351 0.86951 0.01388l0.80117 7.08e-4v0.29702l-1.4108-7.08e-4c-1.1377-5.3e-4 -1.4222-0.0048-1.4695-0.02162z" stroke-width=".082864"/>
<path d="m88.246 37.699c-0.23577-0.10784-0.29857-0.47249-0.16234-0.9426 0.05169-0.17839 0.63997-1.7293 0.68652-1.81 0.07905-0.13692 0.2474-0.24402 0.46848-0.29805 0.0987-0.02412 0.27953-0.02762 1.8444-0.03565l1.7349-0.0089 0.27326-0.70738 0.27326-0.70738h0.74107c0.69822 0 0.74062 0.0016 0.73354 0.02736-0.0037 0.01505-0.12455 0.33135-0.26757 0.7029-0.22658 0.58856-0.27407 0.7263-0.25614 0.74281 0.0019 2e-3 0.42598 0.0072 0.94186 0.01173l0.93796 0.0082 0.02747 0.05608c0.02203 0.04511 0.02419 0.0655 0.01059 0.10427-0.0094 0.0265-0.02859 0.05403-0.04303 0.06116-0.01444 0.0071-0.47272 0.0165-1.0184 0.02079l-0.99216 0.0078-0.31772 0.84416c-0.17475 0.46429-0.33151 0.89629-0.34835 0.96-0.09427 0.35661 0.02024 0.54948 0.36148 0.60882 0.06478 0.01127 0.318 0.01789 0.68392 0.01789h0.58103v0.30762l-1.4668 0.011c-1.4824 0.01113-1.5555 0.0092-1.6575-0.04408-0.05617-0.02934-0.12136-0.10042-0.14429-0.1573-0.0104-0.02579-0.01842-0.10669-0.01783-0.17977 0.0014-0.16536 0.04976-0.35944 0.15601-0.6253 0.07713-0.193 0.64474-1.7533 0.64474-1.7723 0-0.0173-2.1747-0.01045-2.2508 7e-3 -0.09961 0.02295-0.16185 0.07704-0.23732 0.20626-0.08912 0.15259-0.5986 1.4745-0.6322 1.6404-0.06069 0.29949 0.03801 0.51056 0.2611 0.5584 0.04893 0.01049 0.33688 0.01676 0.7703 0.01676h0.69216l0.03203 0.03517c0.05013 0.05503 0.06824 0.10007 0.06971 0.17333 0.0016 0.07685-0.02022 0.12706-0.06558 0.15134-0.02106 0.01127-0.50945 0.0192-1.5121 0.02456-1.3355 0.0071-1.4864 0.0054-1.5357-0.0171z" stroke-width=".082864"/>
<path d="m95.803 37.618c0-0.0185 1.1226-2.93 1.134-2.9409 0.0037-0.0038 0.63391 0.0023 1.3999 0.01367 1.2595 0.01863 1.4008 0.0259 1.4773 0.07604 0.12609 0.08269 0.11033 0.20606-0.09475 0.74216l-0.17929 0.46865h-1.1702l0.17034-0.41037c0.09366-0.2257 0.17033-0.44768 0.17033-0.49329 0-0.17771-0.19582-0.31569-0.44801-0.31569h-0.14154l-0.06206 0.16414c-0.30016 0.7944-0.86613 2.2151-0.91237 2.2902-0.08906 0.14467-0.25082 0.28703-0.40578 0.3571-0.11752 0.05313-0.20635 0.06372-0.53932 0.06429-0.21924 3.53e-4 -0.39862-0.0067-0.39862-0.01594z" stroke-width=".082864"/>
<path d="m103.99 37.369c0.0469-0.11177 0.31781-0.74489 0.60195-1.4069l0.51663-1.2037h0.5875c0.54195 0 0.58259 0.0085 0.52421 0.10943-0.0348 0.06019-0.26057 0.5864-0.50169 1.1694-0.56882 1.3753-0.7181 1.5351-1.4348 1.5351h-0.37913z" stroke-width=".082864"/>
<path d="m105.91 37.508c6e-3 -0.02149 0.21123-0.54317 0.45589-1.1593 0.24467-0.61613 0.44485-1.1462 0.44485-1.178 0-0.166-0.11325-0.27373-0.35725-0.33985-0.0751-0.02035-0.1407-0.04945-0.14575-0.06465-0.0132-0.03975 1.3955-0.03937 1.4757 3.55e-4 0.0304 0.01506 0.0784 0.07212 0.10661 0.12679 0.0435 0.08418 0.0498 0.12312 0.0413 0.25416-9e-3 0.13757-0.0593 0.27872-0.45234 1.2712l-0.44224 1.1164-0.5689 0.0059c-0.5349 0.0055-0.56823 0.0036-0.55785-0.03316z" stroke-width=".082864"/>
<path d="m107.7 34.723c-0.0272-0.0052-0.077-0.0053-0.11053-3.54e-4 -0.0336 0.0051-0.0113 0.0094 0.0494 0.0095 0.0609 1.66e-4 0.0883-4e-3 0.0611-0.0092z" stroke-width=".082864"/>
<path d="m106.33 34.796c-0.0497-0.03658-0.0293-0.04944 0.10079-0.06352 0.0447-0.0049 0.0186-0.0099-0.0619-0.01191l-0.13921-0.0036 0.0397 0.05457c0.0219 0.03002 0.0541 0.05489 0.0715 0.05528 0.0223 5.31e-4 0.019-0.0088-0.0111-0.03089z" stroke-width=".082864"/>
<path d="m107.86 34.805c-0.0348-0.03635-0.0706-0.06609-0.0794-0.06609-8e-3 0 0.0154 0.03251 0.0539 0.07225 0.0384 0.03974 0.0742 0.06948 0.0794 0.06609 6e-3 -0.0034-0.019-0.0359-0.0539-0.07225z" stroke-width=".082864"/>
<path d="m107.95 35.137 7e-3 -0.16581-0.0183 0.16581c-0.01 0.0912-0.0292 0.19382-0.0427 0.22804-0.0365 0.09273-0.0262 0.10432 0.0135 0.01514 0.0189-0.04255 0.0373-0.15199 0.041-0.24319z" stroke-width=".082864"/>
<path d="m105.35 37.044c0.0938-0.1985 0.0811-0.1935-0.0461 0.01813-0.0613 0.10203-0.13331 0.21057-0.15998 0.24119-0.0266 0.03062-6e-3 0.01592 0.0461-0.03265 0.0524-0.04897 0.12375-0.14998 0.15997-0.22666z" stroke-width=".082864"/>
<path d="m105.89 37.498c-7e-3 -0.01763-0.0123-0.0124-0.0133 0.01335-8.8e-4 0.02331 5e-3 0.03637 0.0116 0.02902 7e-3 -0.0073 8e-3 -0.02642 2e-3 -0.04237z" stroke-width=".082864"/>
<path d="m103.79 37.62c8e-3 -0.02195 0.29459-0.69402 0.63678-1.4935l0.62218-1.4536h1.3569c1.1529 0 1.3663 0.0049 1.4199 0.03263 0.13773 0.07122 0.22259 0.32034 0.17904 0.5256-0.0135 0.06383-0.22578 0.62591-0.47162 1.2491l-0.447 1.133-0.63429 4.4e-5c-0.34887 2e-5 -0.63895-0.0075-0.64463-0.01666-6e-3 -0.0092 0.19301-0.529 0.44153-1.1551 0.24851-0.62614 0.46013-1.1744 0.47027-1.2185 0.0377-0.16358-0.0857-0.28947-0.31437-0.32082l-0.0958-0.01312-0.0457 0.1075c-0.0251 0.05911-0.22706 0.54522-0.44866 1.0802-0.22161 0.53501-0.42231 1.011-0.446 1.0578-0.0671 0.13256-0.30073 0.34799-0.47143 0.4347l-0.15183 0.07712-0.48495 0.0067c-0.45968 0.0064-0.48418 0.0047-0.47033-0.03316z" stroke-width=".082864"/>
<path d="m108.22 37.539c0-0.0044 0.19307-0.4949 0.42905-1.0899 0.23598-0.59501 0.44049-1.1243 0.45446-1.1761 0.0301-0.11184 4e-3 -0.21572-0.0717-0.28408-0.0631-0.05708-0.2971-0.19215-0.3817-0.22035-0.0794-0.02648 0.5523-0.05126 1.3064-0.05126 0.45122 0 0.49569 0.0035 0.54362 0.04234 0.044 0.03567 0.0517 0.06109 0.0495 0.16159-4e-3 0.18156-0.0435 0.2947-0.52279 1.5039l-0.44471 1.122h-0.68108c-0.37459 0-0.68106-0.0037-0.68106-0.0081z" stroke-width=".082864"/>
<path d="m110.36 34.701c-0.0458-0.0048-0.1155-0.0047-0.15475 1.78e-4 -0.0393 0.0049-2e-3 0.0088 0.0834 0.0087 0.0851-9.8e-5 0.11723-0.0041 0.0713-0.0089z" stroke-width=".082864"/>
<path d="m109.84 34.702c-0.0152-0.0061-0.0401-0.0061-0.0553 0s-3e-3 0.01116 0.0277 0.01116c0.0304 0 0.0428-0.0051 0.0277-0.01116z" stroke-width=".082864"/>
<path d="m109.61 34.701c-0.0453-0.0048-0.12486-0.0048-0.17686-1.45e-4 -0.052 0.0047-0.015 0.0085 0.0823 0.0086 0.0973 8.1e-5 0.13982-0.0038 0.0945-0.0085z" stroke-width=".082864"/>
<path d="m108.64 34.762c0-0.01149 0.0473-0.02463 0.10501-0.02918 0.0802-0.0063 0.067-0.0092-0.0552-0.01225-0.17814-0.0044-0.22256 0.03561-0.0664 0.05977 9e-3 0.0014 0.0166-0.0068 0.0166-0.01833z" stroke-width=".082864"/>
<path d="m110.55 34.774c-7e-3 -0.0173-0.0281-0.03762-0.0478-0.04517-0.0293-0.01127-0.0284-0.0056 5e-3 0.03145 0.0482 0.05321 0.0592 0.05676 0.0427 0.01373z" stroke-width=".082864"/>
<path d="m110.58 34.89c-7e-3 -0.01763-0.0123-0.01239-0.0134 0.01335-8.8e-4 0.02331 5e-3 0.03637 0.0116 0.02902 8e-3 -0.0073 8e-3 -0.02642 2e-3 -0.04237z" stroke-width=".082864"/>
<path d="m110.46 35.38c0.0103-0.03841 8e-3 -0.04516-6e-3 -0.02211-0.0113 0.01824-0.0271 0.05803-0.0353 0.08843-0.0103 0.03841-8e-3 0.04515 6e-3 0.02211 0.0113-0.01823 0.0271-0.05803 0.0353-0.08843z" stroke-width=".082864"/>
<path d="m110.41 35.524c0-0.01215-0.01-0.0072-0.0215 0.01105-0.0118 0.01824-0.0215 0.04311-0.0215 0.05526s0.01 0.0072 0.0215-0.01105c0.0118-0.01823 0.0215-0.04311 0.0215-0.05527z" stroke-width=".082864"/>
<path d="m108.26 37.403c0-0.01215-0.01-0.0072-0.0215 0.01105-0.0118 0.01824-0.0215 0.04311-0.0215 0.05527 0 0.01215 0.01 0.0072 0.0215-0.01105 0.0118-0.01823 0.0215-0.04311 0.0215-0.05526z" stroke-width=".082864"/>
<path d="m108.51 37.546c-0.14179-0.0089-0.26863-0.02298-0.28188-0.03116-0.0134-0.0083-0.0241 3.54e-4 -0.0241 0.01958 0 0.02959 0.0399 0.034 0.28188 0.03116l0.28187-0.0033z" stroke-width=".082864"/>
<path d="m108.12 37.617c-7e-3 -0.01 0.1937-0.53463 0.44416-1.1659 0.25045-0.63124 0.46018-1.1904 0.46606-1.2425 8e-3 -0.07226 8.9e-4 -0.10573-0.0308-0.14067-0.0604-0.06676-0.30472-0.20271-0.48929-0.27229-0.14773-0.05569-0.20111-0.08963-0.17773-0.11302 0.0174-0.01737 1.9293-0.05768 2.0464-0.04315 0.23824 0.02955 0.29488 0.17322 0.205 0.51998-0.0263 0.10161-0.2529 0.70021-0.50347 1.3302l-0.45558 1.1455h-0.74677c-0.41073 0-0.75183-0.0082-0.758-0.01816z" stroke-width=".082864"/>
<path d="m109.9 33.262c0-0.01031 0.10311-0.28155 0.22912-0.60275l0.2291-0.584 0.68837-0.0058c0.3786-0.0032 0.68837 0.0018 0.68837 0.01113 0 0.0094-0.10316 0.28057-0.22925 0.60275l-0.22924 0.58579-0.68823 0.0058c-0.37853 0.0032-0.68824-0.0026-0.68824-0.01291z" stroke-width=".082864"/>
<path d="m110.91 37.625c-0.0464-0.01656-0.1029-0.04686-0.12556-0.06736-0.12383-0.11206-0.14404-0.36019-0.0572-0.7024 0.0491-0.19348 0.58149-1.5956 0.68064-1.7925 0.0619-0.12295 0.19852-0.26282 0.32266-0.33039 0.23743-0.12922 0.26609-0.13152 1.7772-0.1423l1.3859-0.0099 0.0145 0.07742c0.0164 0.08748-9.4e-4 0.16255-0.051 0.21944-0.0312 0.03559-0.10208 0.03869-0.8828 0.03869-0.95597 0-0.93677-3e-3 -1.034 0.16283-0.0803 0.13712-0.55868 1.4055-0.60972 1.6169-0.0532 0.22047-0.0536 0.35057-2e-3 0.46426 0.0929 0.20241 0.12872 0.21002 0.98674 0.21002 0.68707 0 0.71429 0.0016 0.77048 0.04583 0.0634 0.04988 0.0805 0.16621 0.0317 0.21505-0.0412 0.0412-3.0919 0.03597-3.2082-0.0055z" stroke-width=".082864"/>
<path d="m112.26 34.591c-0.0335-0.0051-0.0881-0.0051-0.1216 0s-6e-3 0.0092 0.0607 0.0092c0.0668 0 0.0942-0.0041 0.0608-0.0092z" stroke-width=".082864"/>
<path d="m114.93 34.689c-7e-3 -0.0152-0.0112-0.0027-0.0112 0.02764 0 0.0304 5e-3 0.04283 0.0112 0.02764 7e-3 -0.01519 7e-3 -0.04007 0-0.05527z" stroke-width=".082864"/>
<path d="m114.84 34.924c0.0196-0.0075 0.0458-0.03487 0.0583-0.0608 0.0224-0.04652 0.0222-0.04656-0.0126-0.0029-0.0282 0.03539-0.0715 0.04678-0.21677 0.05706l-0.18151 0.01284 0.15848 0.0038c0.0872 0.0021 0.17449-0.0024 0.19406-0.0099z" stroke-width=".082864"/>
<path d="m111.67 34.743c3.5e-4 -0.01843-0.15657 0.12519-0.20101 0.184-0.0276 0.03648 7e-3 0.01161 0.0754-0.05527 0.069-0.06687 0.12555-0.12481 0.12563-0.12873z" stroke-width=".082864"/>
<path d="m110.96 36.165c0-0.01215-0.01-0.0072-0.0215 0.01105-0.0118 0.01824-0.0215 0.04311-0.0215 0.05527 0 0.01215 0.01 0.0072 0.0215-0.01105 0.0118-0.01823 0.0215-0.04311 0.0215-0.05527z" stroke-width=".082864"/>
<path d="m110.83 36.531c0.0374-0.10237 0.0641-0.18991 0.0595-0.19452-7e-3 -8e-3 -0.14607 0.35679-0.14607 0.38568 0 0.03352 0.0234-0.01818 0.0865-0.19115z" stroke-width=".082864"/>
<path d="m110.73 36.769c-8e-3 -0.01763-0.0123-0.01239-0.0134 0.01335-8.8e-4 0.02331 5e-3 0.03637 0.0116 0.02902 7e-3 -0.0073 8e-3 -0.02641 2e-3 -0.04237z" stroke-width=".082864"/>
<path d="m110.69 36.946c-7e-3 -0.01763-0.0123-0.01239-0.0133 0.01335-8.8e-4 0.02331 5e-3 0.03637 0.0116 0.02902 7e-3 -0.0073 8e-3 -0.02641 2e-3 -0.04237z" stroke-width=".082864"/>
<path d="m110.67 37.077c-6e-3 -0.0275-0.01-0.01021-0.01 0.03843-1.8e-4 0.04864 4e-3 0.07114 0.01 0.05s6e-3 -0.06093 5.4e-4 -0.08843z" stroke-width=".082864"/>
<path d="m113.97 37.354c-0.0396-0.0049-0.10417-0.0049-0.1437 0-0.0396 0.0049-7e-3 0.0089 0.0718 0.0089 0.079 0 0.11137-4e-3 0.0718-0.0089z" stroke-width=".082864"/>
<path d="m110.67 37.254c-6e-3 -0.02736-0.01-5e-3 -0.01 0.04974 0 0.05472 5e-3 0.0771 0.01 0.04974 6e-3 -0.02736 6e-3 -0.07213 0-0.09949z" stroke-width=".082864"/>
<path d="m114.16 37.46c-8e-3 -0.02525-0.0363-0.0572-0.0628-0.07099l-0.0483-0.02509 0.0497 0.05417c0.0274 0.02979 0.0498 0.06762 0.0498 0.08406s6e-3 0.02401 0.013 0.01682c8e-3 -0.0072 7e-3 -0.03373-9.4e-4 -0.05898z" stroke-width=".082864"/>
<path d="m114.11 37.663c6e-3 -0.0091-0.1206-0.01399-0.28058-0.01084-0.52882 0.01043-0.58401 0.0187-0.154 0.02309 0.23335 0.0023 0.4289-0.0031 0.43458-0.01225z" stroke-width=".082864"/>
<path d="m112.02 37.665c-0.16207-0.01417-1.1281-0.01828-1.0793-0.0046 0.0282 0.0079 0.29996 0.01369 0.60395 0.01286 0.30398-8.84e-4 0.51787-0.0046 0.47532-0.0082z" stroke-width=".082864"/>
<path d="m110.95 37.711c-0.15623-0.04207-0.2171-0.0857-0.28817-0.2066-0.0529-0.08988-0.0597-0.12401-0.0586-0.28979 8.8e-4 -0.13066 0.0188-0.25198 0.0589-0.39815 0.077-0.28091 0.6438-1.7296 0.72896-1.8629 0.11817-0.18509 0.29383-0.30778 0.55411-0.38701 0.0998-0.03036 0.31552-0.03642 1.5461-0.04336l1.4302-0.0081 0.0371 0.05671c0.0541 0.08251 0.0346 0.28097-0.0348 0.35481l-0.0517 0.0551-0.85283 3.53e-4c-0.63169 1.77e-4 -0.86716 0.0074-0.9081 0.02764-0.0777 0.03842-0.16315 0.22113-0.42095 0.90057-0.26789 0.70603-0.3086 0.8452-0.3086 1.0549 0 0.14456 7e-3 0.16724 0.0622 0.22992 0.0864 0.09674 0.1623 0.10516 0.96206 0.1067l0.68151 0.0012 0.0635 0.06349c0.0794 0.07943 0.10092 0.16111 0.0652 0.24749-0.056 0.13518-7e-3 0.13132-1.6508 0.12972-1.2195-0.0012-1.5206-0.0073-1.6151-0.03275z" stroke-width=".082864"/>
<path d="m114.59 37.639c0-0.04818 0.10212-0.21848 0.15032-0.25066 0.0267-0.01787 0.44695-0.03279 0.93375-0.03316 0.86827-7.08e-4 0.88817-0.0027 1.0461-0.11008 0.1036-0.0704 0.20972-0.2069 0.29767-0.3829 0.22966-0.45959 0.26716-0.43623-0.70056-0.43623-0.46581 0-0.8902-0.02015-0.95665-0.04541-0.11217-0.04264-0.11792-0.05813-0.0945-0.25424 0.0294-0.24649 0.33587-1.0174 0.49666-1.2495 0.062-0.08942 0.16263-0.18534 0.22368-0.21316 0.13191-0.0601 3.202-0.07278 3.202-0.01323 0 0.02055-0.0364 0.07029-0.0808 0.11054-0.0701 0.06347-0.21117 0.07317-1.0633 0.07317h-0.98243l-0.11304 0.12159c-0.2167 0.23308-0.44654 0.80156-0.38691 0.95696 0.0238 0.06213 0.14321 0.07106 0.94951 0.07106 1.078 0 1.0574-9e-3 0.94686 0.41525-0.1306 0.50138-0.40671 0.97193-0.6788 1.1568l-0.15911 0.10812h-1.5152c-0.83336 0-1.5152-0.01125-1.5152-0.02501z" stroke-width=".082864"/>
<path d="m122.76 32.456c-0.27327-0.0198-0.52159-0.07599-0.80923-0.18314-0.32915-0.1226-0.52686-0.24206-0.79177-0.47838-0.23899-0.21319-0.33305-0.38685-0.26477-0.48882 0.0328-0.04891 0.15133-0.11108 0.21186-0.11108 0.039 0 0.1217 0.04562 0.23525 0.12973 0.29451 0.21813 0.66426 0.42598 0.89473 0.50297 0.16739 0.05591 0.40235 0.07533 0.82486 0.06815 0.44636-0.0076 0.54983-0.02851 0.83634-0.16914 0.23347-0.11459 0.38978-0.2282 0.59072-0.42937 0.34851-0.34889 0.56208-0.74038 0.64002-1.1732 0.026-0.14401 0.034-0.27041 0.0293-0.45979-6e-3 -0.22164-0.0309-0.39085-0.087-0.57752-0.17518-0.58312-0.6591-1.1377-1.2257-1.4047-0.31397-0.14796-0.51866-0.19155-0.90093-0.19186-0.5884-5.31e-4 -0.9989 0.14534-1.4656 0.52063-0.13605 0.10939-0.19693 0.14998-0.29174 0.19449-0.0958 0.04499-0.16761 0.06155-0.2469 0.05696-0.0728-0.0042-0.11478-0.02617-0.13616-0.07121-0.0495-0.1044 0.0519-0.30807 0.25182-0.50562 0.34375-0.33966 0.95019-0.61574 1.5447-0.70321 0.41378-0.06088 0.75399-0.02817 1.1724 0.11274 0.44172 0.14874 0.79918 0.37384 1.1255 0.70877 0.20743 0.21288 0.35983 0.42801 0.49481 0.6985 0.25303 0.50708 0.34419 1.0752 0.26272 1.6375-0.0921 0.63628-0.43911 1.2528-0.9469 1.6827-0.3943 0.33384-0.91644 0.55416-1.4677 0.61928-0.0996 0.01177-0.39571 0.02075-0.4807 0.01459z" stroke-width=".082864"/>
<path d="m114.66 37.586c0-0.0096 0.0274-0.05 0.0607-0.08981l0.0608-0.07239 0.88432-0.01562c1.0181-0.01799 0.99836-0.0141 1.2019-0.23682 0.11958-0.13084 0.33478-0.53674 0.33465-0.6312-8e-5 -0.05915-0.0444-0.1107-0.12167-0.14141-0.0243-0.0097-0.40734-0.02486-0.85116-0.03376-0.51962-0.01042-0.82964-0.02524-0.8707-0.04163-0.0626-0.025-0.0635-0.02767-0.0489-0.15155 0.0181-0.15362 0.13469-0.50801 0.2706-0.82219 0.13568-0.31365 0.208-0.43639 0.32386-0.54968l0.0975-0.09529 0.56155-0.01993c0.66727-0.02369 1.8715-0.02749 2.2506-0.0071 0.24705 0.01329 0.26705 0.01753 0.23484 0.04974-0.0308 0.03084-0.15932 0.0366-1.0338 0.04628l-0.99859 0.01105-0.12262 0.1464c-0.20275 0.24206-0.39897 0.69285-0.39897 0.9166 0 0.17516-0.0108 0.17307 0.97173 0.18792 0.56041 0.0084 0.87298 0.02152 0.91296 0.03814 0.0771 0.03202 0.0784 0.0854 8e-3 0.33602-0.14772 0.52826-0.38668 0.91832-0.69209 1.1297l-0.0924 0.06397h-1.4717c-0.80943 0-1.4717-0.0079-1.4717-0.01742z" stroke-width=".082864"/>
<path d="m114.72 37.56c-0.0431-0.02738-0.0416-0.04419 8e-3 -0.0853 0.0434-0.03606 0.28601-0.05285 0.81968-0.05676 0.4169-0.0031 0.71163-0.01786 0.65497-0.03291-0.0566-0.01505-0.39636-0.02638-0.75488-0.0252-0.35851 0.0012-0.66459-0.01059-0.68017-0.02618-0.0156-0.01558 0.36194-0.02833 0.83894-0.02833 1.0265 0 1.0732-0.01396 1.2969-0.38752 0.0774-0.12944 0.14924-0.22696 0.15948-0.21673 0.0432 0.04318-0.22759 0.45787-0.35119 0.53786-0.13905 0.08999-0.19173 0.18337-0.0631 0.11185 0.12219-0.06794 0.29252-0.24544 0.32069-0.3342 0.0147-0.04628 0.0411-0.08416 0.0587-0.08416 0.0413 0 0.13271-0.19781 0.15331-0.33146 0.0307-0.1993-0.0123-0.21418-0.67235-0.23272-1.0903-0.03063-1.1467-0.03657-1.1778-0.12403-0.0153-0.04305-3e-3 -0.14845 0.0269-0.23422 0.0301-0.08577 0.0554-0.16501 0.0564-0.17609 3e-3 -0.0401 0.0219-0.10376 0.0607-0.20658 0.0172-0.04557 0.0449-0.12015 0.0616-0.16573 0.0816-0.22288 0.26766-0.55942 0.35437-0.64088 0.0847-0.07962 0.16194-0.09494 0.60856-0.12074 0.28133-0.01626 0.92168-0.02568 1.423-0.02094 1.1706 0.01105 1.1587 0.01055 1.122 0.04715-0.0172 0.01709-0.24863 0.03144-0.51445 0.03188-0.26582 4.46e-4 -0.71636 0.0057-1.0012 0.01163l-0.51791 0.01083-0.13838 0.18372c-0.27297 0.3624-0.41399 0.74416-0.35811 0.96945 0.0185 0.0745 0.0365 0.0874 0.072 0.05179 0.0535-0.05348 1.5917-0.06792 1.6739-0.01571 0.0263 0.01674-0.27725 0.02652-0.67469 0.02173-0.40593-0.0049-0.71278 0.0072-0.70017 0.02762 0.0124 0.01998 0.31595 0.03489 0.67469 0.03316 0.35873-0.0018 0.69214 0.0097 0.74089 0.02551 0.11373 0.03679 0.1422 0.1886 0.0684 0.36431-0.032 0.07598-0.0559 0.13815-0.0531 0.13815 0.0174 0-0.0621 0.19938-0.15697 0.3936-0.0612 0.12533-0.19928 0.31644-0.30682 0.42468l-0.1955 0.1968-1.4418-6.34e-4c-0.79294-3.49e-4 -1.4659-0.01597-1.4955-0.03473z" stroke-width=".082864"/>
<path d="m119.08 34.763c0.1264-0.08282 0.1409-0.15214 0.0255-0.12196-0.0447 0.01171-0.0773 0.04259-0.0725 0.06862 7e-3 0.03361-0.22547 0.05347-0.79904 0.06849-0.66856 0.0175-0.74718 0.02541-0.45576 0.04584 0.62315 0.04367 1.182 0.01749 1.3018-0.06099z" stroke-width=".082864"/>
<path d="m115.95 34.746c0.0909-0.05961 0.30394-0.07243 1.5802-0.09517l1.475-0.02628-2.9208-2e-3 -0.16579 0.1075c-0.0912 0.05913-0.16578 0.1237-0.16578 0.1435 0 0.0198-0.0373 0.0834-0.0829 0.14134-0.0456 0.05794-0.0825 0.13546-0.0819 0.17226 5.1e-4 0.03681 0.0585-0.03189 0.12892-0.15267 0.0704-0.12077 0.1753-0.25059 0.23313-0.28848z" stroke-width=".082864"/>
<path d="m115.54 35.386c3.4e-4 -0.01843-0.018-0.02199-0.0408-0.0079-0.0228 0.01408-0.0412 0.05713-0.0408 0.09567 5.6e-4 0.06038 7e-3 0.06147 0.0408 0.0079 0.0221-0.03418 0.0405-0.07723 0.0408-0.09567z" stroke-width=".082864"/>
<path d="m117.16 36.642c0-0.02279-8e-3 -0.04143-0.0183-0.04143-0.01 0-0.0298 0.01865-0.0439 0.04143-0.0141 0.02279-6e-3 0.04143 0.0183 0.04143 0.0241 0 0.0439-0.01865 0.0439-0.04143z" stroke-width=".082864"/>
<path d="m114.78 37.396c-0.0127-0.01276-0.0462-2.6e-5 -0.0742 0.02828-0.0406 0.04092-0.0359 0.04568 0.0232 0.02319 0.0409-0.01556 0.0638-0.03873 0.0511-0.05149z" stroke-width=".082864"/>
<path d="m116.35 37.635c-0.70641-0.01863-1.3916-0.04109-1.5226-0.04993-0.15081-0.01016-0.23822 1.14e-4 -0.23819 0.02801 3e-5 0.03024 0.478 0.04591 1.5226 0.04993l1.5226 0.0058z" stroke-width=".082864"/>
<path d="m114.51 37.677c0-0.02324 0.045-0.11353 0.1-0.20064l0.1-0.15839 0.44508-0.02723c0.24479-0.01498 0.63516-0.02724 0.86748-0.02724s0.48184-0.02072 0.55447-0.04604c0.13914-0.04851 0.43885-0.43907 0.49986-0.65139l0.0318-0.1105-0.64838 0.01225c-0.35661 0.0067-0.69217-0.0039-0.74569-0.02374-0.0608-0.02252 0.1259-0.03223 0.49882-0.02595l0.59611 0.01004-0.66292-0.03671c-0.3646-0.02019-0.70486-0.04702-0.75613-0.0596-0.11688-0.02869-0.11889-0.12161-0.0103-0.47706 0.0452-0.14812 0.0824-0.27338 0.0825-0.27837 1.7e-4 -5e-3 -0.0295 0.0023-0.0659 0.01637-0.0709 0.02718-0.0738 0.03725 0.08-0.26962 0.0381-0.07591 0.0692-0.16006 0.0692-0.187 0-0.02694 0.0638-0.14384 0.14196-0.25978 0.23815-0.35363 0.20279-0.34743 1.9833-0.34743 1.7123 0 1.704-0.0014 1.4959 0.24596l-0.10426 0.1239-0.97715-1.6e-4c-1.1161-1.84e-4 -1.0782-0.01179-1.2841 0.39285-0.0682 0.13396-0.11424 0.18572-0.13516 0.15187-0.0222-0.03597-0.0385-0.02547-0.0544 0.03507-0.0125 0.04753-6e-3 0.07597 0.015 0.06321 0.0206-0.01277 0.0376 0.0058 0.0376 0.04137 0 0.03552-0.0233 0.05993-0.0518 0.05423-0.0582-0.01165-0.0724 0.16888-0.0191 0.24501 0.0237 0.03396 0.27879 0.04805 0.86302 0.04766 0.45612-3.02e-4 0.84151 0.01164 0.85641 0.02655s9.4e-4 0.04304-0.0302 0.06251c-0.0428 0.02648-0.0322 0.03897 0.0427 0.04954 0.13078 0.01848 0.14697 0.14076 0.0555 0.41905-0.0392 0.1191-0.0803 0.24452-0.0914 0.2787-0.0115 0.0353 7e-3 0.02654 0.0438-0.02026 0.0353-0.04533 0.0561-0.09531 0.0463-0.11108-0.01-0.01577 9.4e-4 -0.04038 0.0244-0.05469 0.0232-0.01432 0.0415 0.0077 0.0408 0.04893-2e-3 0.08734-0.0932 0.21996-0.15196 0.21996-0.0223 0-0.0623 0.0478-0.089 0.10622-0.028 0.06144-0.0309 0.09534-7e-3 0.08042 0.023-0.01419 0.0417-0.0076 0.0417 0.01469 0 0.07714-0.0505 0.17156-0.0917 0.17156-0.0228 0-0.0292-0.03206-0.0141-0.07124 0.015-0.03919 0.0204-0.06249 0.012-0.05179-8e-3 0.0107-0.10732 0.12064-0.21971 0.24432-0.18611 0.20482-0.18977 0.25038-8e-3 0.09387 0.0398-0.03425 0.0725-0.0441 0.0725-0.02188 0 0.04431-0.14167 0.17087-0.28219 0.25213-0.11539 0.06672-3.1981 0.07591-3.1981 0.0095z" stroke-width=".082864"/>
<path d="m74.397 26.919c0.0956-0.2532 0.40919-1.0524 0.69685-1.7761 0.28767-0.72367 0.65911-1.7015 0.82542-2.1729 0.41018-1.1627 0.78551-2.1554 1.4102-3.7297 0.50156-1.2641 0.54676-1.3467 0.97155-1.774 0.29061-0.29235 0.62478-0.53513 0.96111-0.69828l0.5156-0.25011 2.8358-0.05549c1.5597-0.03052 2.9021-0.07229 2.9831-0.09283 0.11659-0.02955 0.43826-0.75556 1.5425-3.4815 1.9476-4.8079 2.0447-5.0216 2.4759-5.4528 0.1972-0.19721 0.5504-0.45464 0.78488-0.57208l0.42633-0.21352 2.578-0.066816c1.5069-0.039056 3.6032-0.040031 5.0455-0.00234l2.4675 0.064453 0.0229 0.19838c0.0202 0.17415-7e-3 0.20293-0.22097 0.23567-0.13413 0.02051-1.5215 0.063823-3.0829 0.096251-3.2225 0.066922-3.0466 0.031389-3.4947 0.70623-0.30751 0.46314-1.3044 2.9451-4.4586 11.101-1.3082 3.3827-2.4689 6.3519-2.5793 6.5983-0.35137 0.78429-0.88063 1.2427-1.8604 1.6115l-0.49695 0.18705h-10.523zm7.0691-0.44194c0.17044-0.21573 3.6496-8.8087 3.7534-9.2704l0.0432-0.19215-0.79061-0.04956c-0.95338-0.05977-1.2144-0.01489-1.4845 0.2552-0.29625 0.29626-0.32874 0.37175-2.7078 6.2922-0.17906 0.44562-0.37012 0.90966-0.42457 1.0312-0.2104 0.46965-0.64639 1.7011-0.68373 1.9312l-0.0392 0.24166h2.1446z" stroke-width=".14731"/>
<path d="m99.897 37.614c-0.08597-0.04221-0.09872-0.14124-0.04509-0.34869 0.03656-0.14155 0.74067-1.9764 0.81283-2.1183 0.11884-0.23368 0.26649-0.3932 0.43867-0.47394l0.10349-0.04852h1.5117c1.2543 0 1.5169 0.0043 1.5422 0.02528 0.0388 0.03223 0.0393 0.13118 9.4e-4 0.26141-0.0161 0.05501-0.21169 0.57649-0.43465 1.1588-0.42307 1.105-0.48418 1.2371-0.64467 1.394-0.0435 0.04256-0.12058 0.09642-0.17122 0.11969l-0.0921 0.04231-1.4916 0.0037c-1.0111 0.0024-1.5042-0.0026-1.5309-0.01568zm1.8439-0.21582c0.10864-0.04852 0.18057-0.11281 0.23948-0.21407 0.0365-0.06262 0.92981-2.3443 0.92981-2.3747 0-0.0058-0.17144-0.0084-0.38099-0.0056l-0.38098 5e-3 -0.50323 1.2798c-0.27678 0.70388-0.50839 1.2995-0.5147 1.3236l-0.0114 0.04383 0.26501-0.0083c0.22279-0.0069 0.27966-0.01485 0.35707-0.04942z" stroke-width=".036828"/>
</g>
</g>
</g>
</svg>
