<?xml version="1.0" encoding="UTF-8" standalone="no"?>
<!-- Generator: Adobe Illustrator 21.0.0, SVG Export Plug-In . SVG Version: 6.00 Build 0)  -->

<svg
   xmlns:dc="http://purl.org/dc/elements/1.1/"
   xmlns:cc="http://creativecommons.org/ns#"
   xmlns:rdf="http://www.w3.org/1999/02/22-rdf-syntax-ns#"
   xmlns:svg="http://www.w3.org/2000/svg"
   xmlns="http://www.w3.org/2000/svg"
   xmlns:sodipodi="http://sodipodi.sourceforge.net/DTD/sodipodi-0.dtd"
   xmlns:inkscape="http://www.inkscape.org/namespaces/inkscape"
   version="1.1"
   id="svg2"
   inkscape:version="0.91 r13725"
   sodipodi:docname="xanderlogo57cm.svg"
   x="0px"
   y="0px"
   viewBox="0 0 2019.6851 827.68304"
   xml:space="preserve"
   width="570mm"
   height="233.59053mm"><metadata
     id="metadata30"><rdf:RDF><cc:Work
         rdf:about=""><dc:format>image/svg+xml</dc:format><dc:type
           rdf:resource="http://purl.org/dc/dcmitype/StillImage" /><dc:title></dc:title></cc:Work></rdf:RDF></metadata><defs
     id="defs28" /><style
     type="text/css"
     id="style3">
	.st0{fill:none;stroke:#000000;stroke-linecap:round;stroke-linejoin:round;}
	.st1{fill:none;stroke:#000000;stroke-linejoin:round;}
	.st2{fill:none;stroke:#000000;stroke-width:0.4;stroke-linejoin:round;}
	.st3{fill:none;stroke:#000000;stroke-width:0.4;}
	.st4{fill:none;stroke:#000000;stroke-width:0.4;stroke-linecap:round;stroke-linejoin:round;}
</style><sodipodi:namedview
     bordercolor="#666666"
     borderopacity="1.0"
     id="base"
     inkscape:current-layer="svg2"
     inkscape:cx="945.2162"
     inkscape:cy="476.89114"
     inkscape:document-units="px"
     inkscape:pageopacity="0.0"
     inkscape:pageshadow="2"
     inkscape:window-height="1021"
     inkscape:window-maximized="1"
     inkscape:window-width="1920"
     inkscape:window-x="0"
     inkscape:window-y="0"
     inkscape:zoom="0.35355339"
     pagecolor="#ffffff"
     showgrid="false"
     fit-margin-top="0"
     fit-margin-left="0"
     fit-margin-right="0"
     fit-margin-bottom="0"
     units="mm" /><path
     style="fill:none;stroke:#000000;stroke-width:2.77846766;stroke-linecap:round;stroke-linejoin:round"
     d="m 1866.4342,-6.1935283 -386.485,0 C 1412.7103,-7.0270783 1376.868,47.430882 1360.753,105.50086 L 1224.0523,-6.1935283 1178.4855,-7.0270783 1349.0834,132.72984 1266.285,360.842 c -6.1126,15.28156 -37.2315,57.51426 -80.5755,57.51426 L 75.433947,416.96702 c -13.89233,-14.44802 -36.67577,-5.55693 -36.95361,11.11387 0,26.39544 29.1739,20.56067 35.00868,15.55943 l 1275.038583,1.38924 c 43.3442,1.11138 96.135,-39.1764 115.8622,-86.41034 l 41.3991,-96.13496 218.9431,181.71176 46.4006,0.83354 -256.1747,-209.21859 75.0186,-192.269938 c 5.2791,-11.11387 17.2265,-26.95113 43.8998,-27.22898 l 233.3912,0.83354 -0.8333,-23.3391203 z"
     class="st0"
     sodipodi:nodetypes="ccccccccccccccccccccc"
     inkscape:connector-curvature="0"
     id="path3059_1_" /><path
     style="fill:none;stroke:#000000;stroke-width:2.77846766;stroke-linecap:round;stroke-linejoin:round"
     d="m 1136.8085,231.64326 -145.59178,0.55571 c -14.1701,-0.83356 -17.7821,16.94864 -13.3366,25.83974 l 54.73578,138.92335 149.4816,-0.55568 c 20.8384,0.55568 23.6169,-13.6145 18.06,-29.17391 l -23.3392,-59.18134 -77.5192,0.55568 c -16.1151,0 -16.6707,19.17142 0.5557,19.44927 l 17.7822,0 19.1715,49.17885 c 1.9449,5.27911 -1.1115,10.5582 -8.6133,10.5582 l -26.3954,0 -53.0688,-136.42274 c -4.7233,-10.55819 5.8348,-10.0025 9.4468,-10.0025 l 80.0199,0.55572 c 6.1126,-0.55572 5.2791,-10.28035 -1.3892,-10.28035 l 0,0 z"
     class="st0"
     sodipodi:nodetypes="ccccccccccccccccc"
     inkscape:connector-curvature="0"
     id="path3829_1_" /><path
     style="fill:none;stroke:#000000;stroke-width:2.77846766;stroke-linejoin:round"
     d="m 923.14435,233.31035 -145.86956,0.55569 c -12.78095,0.27785 -20.5607,19.72711 -11.39169,40.28777 l 47.23389,119.4741 69.18385,0 -50.56806,-126.69811 c -6.94621,-17.78219 9.72461,-23.33913 24.17263,-24.45051 l 51.12377,123.36394 c 7.22405,15.55942 29.45174,30.841 43.62194,30.841 l 42.2327,0 -69.73947,-163.37388 z"
     class="st1"
     sodipodi:nodetypes="ccccccccccc"
     inkscape:connector-curvature="0"
     id="path3831_1_" /><path
     style="fill:none;stroke:#000000;stroke-width:1.11138701;stroke-linejoin:round"
     d="m 320.21693,503.65521 -38.89856,0 c -3.33414,0 -5.55693,5.27909 -3.05631,10.83603 l 12.5031,31.67451 18.3379,0 -13.33665,-33.61945 c -1.94493,-4.7234 2.50061,-6.11261 6.39047,-6.66832 l 13.6145,32.78592 c 1.94492,4.16769 7.77969,8.33541 11.66955,8.33541 l 11.39172,0 -18.61572,-43.3441 z"
     class="st2"
     sodipodi:nodetypes="ccccccccccc"
     inkscape:connector-curvature="0"
     id="path3831_2_" /><path
     style="fill:none;stroke:#000000;stroke-width:2.77846766;stroke-linecap:round;stroke-linejoin:round"
     d="m 79.601647,408.35379 c -5.83478,-6.11263 -13.61449,-9.44679 -21.3942,-9.44679 -8.05755,-0.27786 -16.11511,2.50061 -22.50558,8.61324 -12.503105,11.9474 -13.336646,31.67452 -1.38924,44.17763 11.94741,12.50311 31.67453,13.05879 44.17763,1.38924 6.94617,-6.66833 14.448041,0.27784 9.4468,6.11262 -0.55569,0.5557 -1.11139,1.11139 -1.66708,1.66708 -16.94866,16.11512 -43.89979,15.55942 -60.014902,-1.38923 -16.115109,-16.94865 -15.28157,-43.89978 1.667082,-60.01489 8.61325,-8.05756 19.44927,-11.94742 30.28529,-11.66956 l 0,0 c 10.83602,0.27784 21.67205,4.72339 29.72961,13.33662 7.779701,8.05758 -3.33416,13.05882 -8.33541,7.22404 z"
     class="st0"
     sodipodi:nodetypes="ccssccssssccc"
     inkscape:connector-curvature="0"
     id="path3835_1_" /><path
     style="fill:none;stroke:#000000;stroke-width:2.77846766;stroke-linejoin:round"
     inkscape:connector-curvature="0"
     d="m 511.93118,87.996512 c 17.78218,0 33.89726,10.83602 39.73205,25.561898 l 48.62321,120.86331 77.24137,0 c 13.61448,0 34.45301,9.72466 40.2878,26.11761 l 52.51296,135.31136 -146.14733,0 c -13.33665,0 -37.23146,-6.66835 -45.01116,-25.83976 L 483.31296,122.44951 C 474.42185,97.165462 466.36429,96.887612 457.75107,96.887612 l -81.40912,0 0,-8.33541 135.58923,-0.55569 z m 115.02851,154.204918 -24.17263,0.5557 53.90222,134.4778 c 1.66709,4.16772 6.11268,10.0025 10.83604,10.0025 l 27.50685,0 -53.34657,-132.81074 c -2.77851,-5.55694 -4.72342,-11.9474 -14.72591,-12.22526 z"
     class="st1"
     id="path2992_1_" /><path
     style="fill:none;stroke:#000000;stroke-width:2.77846766;stroke-linejoin:round"
     d="m 481.36803,234.14389 -150.59293,0.55569 c -9.72463,0 -18.33789,13.0588 -13.89234,24.4505 l 21.11635,55.56935 c 1.94494,3.33416 5.27909,6.11263 10.00249,6.11263 l 74.46292,0.55568 c 14.72589,0.27786 15.00372,-20.2828 0,-20.00496 l -16.67081,0 -18.89356,-48.62317 c -4.16772,-10.836 0,-10.00248 8.8911,-10.55818 l 19.72711,0 51.1238,135.58921 c 1.66707,6.66833 -0.83354,10.55818 -8.89109,10.55818 l -87.52173,0 -0.27786,8.33541 145.86953,0 c 14.17019,0 23.06128,-14.44804 18.06004,-25.5619 L 481.36803,234.14389 Z"
     class="st1"
     sodipodi:nodetypes="cccccccccccccccccc"
     inkscape:connector-curvature="0"
     id="path3764_1_" /><path
     style="fill:none;stroke:#000000;stroke-width:1.11138701;stroke-linejoin:round"
     d="m 713.09219,503.09952 -41.12128,0.27785 c -2.77851,0 -5.00125,3.61199 -3.88988,6.6683 l 5.83479,15.28158 c 0.55565,0.83354 1.38925,1.66708 2.77845,1.66708 l 20.28281,0.27785 c 3.88988,0 4.1677,-5.55693 0,-5.55693 l -4.44553,0 -5.27908,-13.33664 c -1.11142,-3.05632 0,-2.77846 2.50063,-2.77846 l 5.27907,0 13.33666,35.56438 c 0.55571,1.94492 -0.27789,2.77846 -2.50068,2.77846 l -23.3391,0 0,3.612 40.00992,0 c 3.88987,0 6.3905,-3.88986 5.00124,-6.94618 l -14.44802,-37.50929 z"
     class="st2"
     sodipodi:nodetypes="cccccccccccccccccc"
     inkscape:connector-curvature="0"
     id="path3764_2_" /><path
     style="fill:none;stroke:#000000;stroke-width:2.77846766;stroke-linejoin:round"
     d="m 206.29977,243.86852 47.51179,122.80825 c 8.89109,20.00496 28.34036,29.17392 38.34285,29.17392 l 39.17638,0 c 4.7234,0 3.88986,-1.94495 2.77846,-4.16771 l -61.12627,-158.37263 -140.3126,1.38923 c -13.33665,0 -28.06252,6.11262 -20.83851,24.4505 l 3.88986,11.11387 14.72587,38.34286 63.90476,0 c 4.16769,0 3.05632,-3.33417 1.38922,-6.94617 l -15.28157,-36.12008 c -7.22401,-17.50435 16.6708,-24.72836 25.83976,-21.67204 z"
     class="st1"
     sodipodi:nodetypes="cccccccccccccc"
     inkscape:connector-curvature="0"
     id="path3766_1_" /><path
     style="fill:none;stroke:#000000;stroke-width:1.11138701;stroke-linejoin:round"
     d="m 421.90884,505.32229 13.33662,34.17515 c 2.50062,5.55694 7.77972,8.05755 10.55819,8.05755 l 10.83602,0 c 1.38923,0 1.1114,-0.55568 0.83354,-1.11137 l -16.94865,-43.89979 -38.89854,0.27784 c -3.612,0 -7.77972,1.66707 -5.83477,6.66831 l 1.11136,3.05632 4.1677,10.55819 17.78221,0 c 1.11138,0 0.83355,-0.83356 0.27783,-1.94493 l -4.16769,-10.00249 c -2.22278,-4.72338 4.44554,-6.66833 6.94618,-5.83478 z"
     class="st2"
     sodipodi:nodetypes="cccccccccccccc"
     inkscape:connector-curvature="0"
     id="path3766_2_" /><path
     style="fill:none;stroke:#000000;stroke-width:1.11138701"
     d="m 616.12366,465.31237 31.39673,81.40907 21.67201,0 -31.95233,-81.40907 -21.11641,0 z"
     class="st3"
     inkscape:connector-curvature="0"
     id="path3776_1_" /><path
     style="fill:none;stroke:#000000;stroke-width:1.11138701;stroke-linecap:round;stroke-linejoin:round"
     d="m 503.8736,507.26722 31.11884,0 c 3.33417,0.27785 3.33417,1.94493 5.00125,4.44554 l 7.50184,19.44928 c 2.22279,5.83477 1.11142,10.55817 -3.88982,10.55817 l -19.44929,0 c -3.05632,0 -4.44556,6.94618 0,6.94618 l 41.67701,0.27783 c 6.11261,0 8.33541,-7.50184 3.88988,-18.89357 l -8.33541,-21.94989 c -2.2228,-5.00124 -7.50187,-6.39047 -14.72592,-6.39047 l -45.56684,0 -8.05755,-20.8385 -23.33911,0 8.33538,21.67204 -26.39543,0 c -2.50062,0 -3.33416,5.00124 0.27784,5.00124 l 28.06251,0 9.16896,24.45051 c 2.77845,7.50186 0,10.28033 -7.77971,10.28033 l -15.55941,0 0,5.83477 42.78838,0.27785 c 8.05755,0 8.89109,-6.11262 3.61201,-18.06003 l -8.33541,-23.06128 z"
     class="st4"
     sodipodi:nodetypes="ccccccccccccccccccccccccc"
     inkscape:connector-curvature="0"
     id="path3780_1_" /><path
     style="fill:none;stroke:#000000;stroke-width:1.11138701"
     inkscape:connector-curvature="0"
     d="m 375.50842,503.09952 c 7.77971,0 10.28033,4.44555 12.78094,8.8911 l 10.5582,27.22897 c 1.94491,5.27908 3.05629,10.00248 -1.94495,10.00248 l -39.45422,0 c -7.22401,0 -8.61325,-3.33417 -11.39173,-7.77969 l -11.39172,-29.72962 c -2.77845,-7.50186 -1.66706,-8.33539 1.66709,-8.33539 l 39.17639,0 z m -11.94741,3.33417 -9.72463,0 13.05879,33.61944 c 2.77848,4.7234 6.11263,3.88986 11.39172,3.88986 l -14.72588,-37.5093 z"
     class="st3"
     id="path3786_1_" /><path
     id="path3790_1_"
     inkscape:connector-curvature="0"
     sodipodi:nodetypes="cccccccc"
     class="st4"
     d="m 271.87159,503.65521 -25.28406,-0.55569 c -6.94616,0 -10.55817,-0.83355 -5.83478,11.94741 l 12.50312,31.39669 21.67204,0 -12.78095,-32.23023 c -2.50062,-5.83478 0.27783,-5.83478 4.72339,-8.61324 1.66708,-0.55571 3.33416,-1.11141 5.00124,-1.94494 z"
     style="fill:none;stroke:#000000;stroke-width:1.11138701;stroke-linecap:round;stroke-linejoin:round" /><path
     id="path3792_1_"
     inkscape:connector-curvature="0"
     sodipodi:nodetypes="ccccc"
     class="st4"
     d="m 220.74779,464.20098 7.50186,19.17142 21.9499,0 -7.50187,-19.17142 -21.94989,0 z"
     style="fill:none;stroke:#000000;stroke-width:1.11138701;stroke-linecap:round;stroke-linejoin:round" /><path
     style="fill:none;stroke:#000000;stroke-width:1.11138701"
     d="m 176.84801,507.54507 23.61696,0 c 3.05631,0 3.61202,3.05632 5.27909,6.94617 l 5.55694,14.72587 c 3.61201,9.72464 1.38924,13.0588 -3.33417,13.0588 l -18.89357,0 c -4.1677,0 -4.7234,5.83477 -0.5557,5.83477 l 41.12132,0 c 6.66831,0 12.50312,-2.22278 5.83478,-19.17142 l -7.50185,-19.17141 c -3.05632,-7.22402 -10.00249,-8.33542 -16.11512,-8.33542 l -36.39791,0 c -1.38924,0 -1.66709,6.11264 1.38923,6.11264 l 0,0 z"
     class="st3"
     sodipodi:nodetypes="ccccccccccccc"
     inkscape:connector-curvature="0"
     id="path3794_1_" /><path
     style="fill:none;stroke:#000000;stroke-width:1.11138701"
     d="m 111.83187,501.43243 c 1.11139,0 44.73333,0 44.73333,0 6.11262,0 8.89108,7.50187 11.39171,13.6145 5.83478,14.17018 3.612,14.72587 -3.33417,14.72587 l -21.39418,0 c -0.83355,0 2.77846,12.22526 10.00247,12.22526 l 23.89483,0 c 2.5006,0 4.72338,6.11262 3.33415,6.11262 l -44.17763,0 c -8.61324,0 -19.44926,-26.1176 -12.78094,-26.1176 l 25.83974,0 c 3.33416,0 -3.33416,-15.55939 -7.22402,-15.55939 l -26.95113,0 c -1.66708,0.83353 -5.83478,-5.00126 -3.33416,-5.00126 z"
     class="st3"
     sodipodi:nodetypes="ccscsccccccccc"
     inkscape:connector-curvature="0"
     id="path3796_1_" /><path
     style="fill:none;stroke:#000000;stroke-width:1.11138701;stroke-linejoin:round"
     d="m 616.40154,503.09952 -41.12133,0.27785 c -2.77845,0 -5.00125,3.61199 -3.88982,6.6683 l 5.83473,15.28158 c 0.55571,0.83354 1.38925,1.66708 2.77851,1.66708 l 20.28281,0.27785 c 3.88982,0 4.1677,-5.55693 0,-5.55693 l -4.44554,0 -5.27913,-13.33664 c -1.11137,-3.05632 0,-2.77846 2.50063,-2.77846 l 5.27913,0 13.3366,35.56438 c 0.55571,1.94492 -0.27783,2.77846 -2.50063,2.77846 l -23.33909,0 0,3.612 40.00991,0 c 3.88988,0 6.39045,-3.88986 5.00125,-6.94618 l -14.44803,-37.50929 z"
     class="st2"
     sodipodi:nodetypes="cccccccccccccccccc"
     inkscape:connector-curvature="0"
     id="path3764_4_" /></svg>