<?xml version="1.0" standalone="no"?>
<!DOCTYPE svg PUBLIC "-//W3C//DTD SVG 20010904//EN"
 "http://www.w3.org/TR/2001/REC-SVG-20010904/DTD/svg10.dtd">
<svg version="1.0" xmlns="http://www.w3.org/2000/svg"
 width="1270.000000pt" height="451.000000pt" viewBox="0 0 1270.000000 451.000000"
 preserveAspectRatio="xMidYMid meet">

<g transform="translate(0.000000,451.000000) scale(0.100000,-0.100000)"
fill="#000000" stroke="none">
<path d="M0 2255 l0 -2255 6350 0 6350 0 0 2255 0 2255 -6350 0 -6350 0 0
-2255z m2830 2042 c115 -29 159 -45 239 -87 201 -105 347 -290 436 -555 15
-44 29 -82 31 -84 4 -4 39 23 255 199 92 74 281 228 422 343 l256 208 143 -3
143 -3 -221 -180 c-122 -99 -381 -310 -577 -469 l-355 -289 38 -106 c21 -58
111 -302 200 -541 89 -239 203 -545 253 -680 90 -243 91 -245 156 -319 137
-155 240 -235 352 -273 l62 -21 3769 11 3768 11 29 22 c65 48 172 30 212 -35
37 -61 13 -148 -50 -181 -42 -21 -109 -19 -149 5 -32 20 -51 20 -2965 12
-1612 -5 -3560 -6 -4327 -2 l-1395 6 -80 23 c-114 32 -183 62 -268 114 -140
88 -268 225 -350 377 -29 52 -202 467 -275 658 -9 23 -19 42 -22 42 -3 0 -253
-203 -555 -451 -303 -248 -570 -468 -595 -488 -24 -20 -111 -91 -193 -158
l-149 -123 -155 0 -155 0 179 145 c263 215 506 414 678 555 84 69 315 257 513
419 l361 294 -18 46 c-10 25 -127 320 -261 655 -265 665 -264 662 -369 724
l-46 27 -840 5 -840 5 -3 69 c-2 38 -1 75 2 83 5 11 212 13 1328 10 1196 -3
1329 -5 1388 -20z m7348 -654 l-3 -28 -312 -5 c-296 -5 -313 -6 -332 -25 -10
-11 -65 -132 -121 -270 -57 -137 -141 -342 -187 -455 -46 -113 -154 -389 -240
-615 -85 -225 -164 -426 -174 -446 -28 -56 -68 -99 -128 -137 -95 -61 -104
-62 -653 -62 -276 0 -498 4 -498 9 0 5 36 102 79 217 160 423 239 630 254 666
25 58 100 131 174 169 l67 34 284 5 283 5 80 205 c222 571 228 584 275 638 30
34 68 63 116 86 l71 36 484 0 484 0 -3 -27z m-4045 -952 c58 -14 87 -46 87
-96 0 -34 -41 -124 -239 -516 l-240 -474 -523 0 c-570 0 -575 0 -603 56 -29
54 -16 103 66 249 26 47 64 114 84 150 19 36 43 80 52 98 l17 32 292 0 293 0
20 -26 c27 -34 26 -50 -4 -79 -21 -22 -33 -25 -98 -25 l-74 0 -47 -87 c-26
-49 -68 -130 -94 -180 -62 -122 -59 -127 69 -131 l95 -3 31 68 c18 37 102 212
188 388 254 519 239 486 228 504 -9 14 -48 16 -317 19 l-306 2 0 23 c0 13 3
27 7 30 10 10 972 8 1016 -2z m1361 -17 c50 -26 76 -74 76 -140 0 -60 -12 -97
-120 -354 -45 -107 -113 -271 -151 -364 -39 -93 -74 -177 -80 -188 -9 -17 -26
-18 -234 -18 -188 0 -225 2 -225 14 0 8 77 207 171 441 152 379 171 432 166
469 -4 27 -14 48 -32 63 -29 25 -97 48 -117 40 -15 -5 -14 -2 -191 -437 -154
-376 -176 -426 -213 -469 -39 -46 -126 -101 -188 -117 -60 -16 -336 -19 -336
-4 0 5 27 71 61 147 34 76 110 251 169 388 59 138 138 319 175 403 l67 153
482 -3 c463 -3 482 -4 520 -24z m3129 12 c54 -23 72 -51 72 -115 0 -52 -7 -69
-109 -258 l-109 -203 -281 0 c-317 0 -320 1 -320 65 0 52 22 65 109 65 l71 0
88 179 c110 223 110 221 -29 221 l-94 0 -59 -122 c-33 -68 -137 -279 -231
-471 -144 -291 -170 -350 -161 -367 10 -19 21 -20 310 -20 l300 0 0 -30 0 -31
-504 3 c-495 3 -505 3 -533 24 -15 12 -34 38 -42 59 -25 65 -27 60 324 730 29
55 74 142 100 193 l48 92 509 0 c407 0 515 -3 541 -14z m1357 -11 c52 -31 72
-73 71 -152 0 -63 -5 -78 -65 -200 l-65 -133 -226 0 c-124 0 -225 2 -225 4 0
2 25 68 56 147 59 154 66 194 39 235 -19 29 -95 67 -126 62 -24 -4 -16 15
-194 -438 -163 -416 -178 -448 -227 -500 -77 -79 -151 -100 -364 -100 -142 0
-145 1 -139 20 4 12 70 168 147 348 133 311 280 661 299 710 l9 23 487 -3
c470 -3 489 -4 523 -23z m462 -1057 c54 -23 120 -89 143 -145 23 -53 22 -141
-3 -194 -50 -110 -184 -183 -303 -165 -58 9 -153 57 -157 80 -7 36 14 38 70 7
92 -52 220 -40 291 27 66 62 85 157 48 238 -47 104 -203 156 -316 104 -24 -11
-47 -24 -50 -30 -9 -15 -55 -12 -55 3 0 17 36 50 78 71 76 39 168 40 254 4z
m-3944 -487 c-1 -5 -57 -128 -123 -275 l-119 -266 -63 0 c-35 0 -63 3 -63 8 0
4 52 127 117 275 l116 267 70 0 c38 0 67 -4 65 -9z m2780 2 c-2 -5 -14 -32
-27 -60 l-23 -53 -69 0 c-38 0 -69 3 -69 6 0 3 12 30 26 60 l25 54 71 0 c38 0
68 -3 66 -7z m-1728 -125 c0 -7 -14 -37 -30 -67 -17 -30 -30 -56 -30 -58 0 -1
44 -4 98 -5 l97 -2 -97 -5 c-53 -3 -101 -10 -106 -16 -5 -5 -26 -52 -47 -102
-36 -89 -37 -94 -21 -118 17 -26 35 -33 106 -38 25 -2 -14 -4 -87 -5 -72 -1
-143 2 -157 8 -37 14 -34 46 14 163 22 53 40 99 40 102 0 8 -264 5 -276 -3
-12 -7 -86 -151 -98 -188 -12 -40 24 -68 96 -75 47 -4 29 -6 -72 -7 -194 -3
-206 9 -148 140 66 151 60 148 312 148 l196 0 35 70 35 70 70 0 c49 0 70 -4
70 -12z m-1377 -149 c8 -13 3 -30 -24 -75 l-35 -59 -89 0 c-73 0 -90 3 -90 15
0 9 11 16 26 18 20 2 33 15 53 52 l27 49 -25 7 c-14 3 -29 3 -34 0 -11 -7
-142 -243 -142 -256 0 -5 42 -11 93 -13 50 -2 20 -3 -68 -3 -157 1 -160 1
-163 23 -2 12 3 32 11 45 8 13 40 67 71 121 l57 97 161 -2 c136 -3 162 -6 171
-19z m651 15 c25 -9 19 -43 -16 -101 l-33 -54 -85 3 c-66 2 -85 6 -85 18 0 8
11 17 25 20 27 6 76 82 65 100 -10 16 -40 12 -57 -7 -16 -19 -130 -226 -132
-240 0 -4 42 -11 94 -14 85 -5 79 -5 -61 -7 -212 -3 -208 -11 -99 176 l65 112
152 0 c83 0 158 -3 167 -6z m1234 -6 c16 -16 15 -53 -3 -88 -15 -29 -18 -30
-84 -30 l-69 0 15 39 c18 45 12 71 -15 71 -14 0 -31 -26 -68 -108 -73 -161
-68 -155 -153 -160 l-73 -4 28 53 c15 30 46 96 70 147 l43 92 148 0 c103 0
153 -4 161 -12z m442 8 c0 -18 -105 -245 -121 -261 -18 -18 -35 -20 -189 -23
-94 -2 -170 0 -170 3 0 11 91 220 106 243 8 13 25 27 37 32 21 8 337 14 337 6z
m405 -12 c10 -10 13 -24 9 -38 -9 -30 -94 -219 -104 -229 -4 -4 -36 -7 -73 -5
l-65 3 54 119 c43 92 52 121 43 132 -27 33 -45 15 -94 -93 -64 -143 -77 -156
-160 -161 l-67 -4 31 59 c16 33 48 99 70 147 l41 86 149 0 c124 0 152 -3 166
-16z m216 6 c29 -16 23 -53 -30 -170 l-47 -105 -67 -3 c-38 -2 -67 1 -67 7 0
5 21 57 46 116 25 58 44 114 42 123 -2 9 -19 22 -38 29 -32 11 -28 12 53 12
49 1 97 -4 108 -9z m377 1 c-53 -3 -101 -10 -106 -16 -4 -5 -27 -52 -51 -103
-42 -88 -43 -93 -27 -117 17 -26 35 -33 106 -38 25 -2 -16 -4 -90 -5 -194 -3
-206 9 -148 140 39 89 64 127 92 138 11 5 89 8 171 8 138 -1 142 -2 53 -7z
m462 0 c-58 -3 -111 -10 -118 -15 -13 -8 -52 -88 -52 -107 0 -5 45 -9 101 -9
99 0 100 0 93 -22 -16 -56 -34 -86 -59 -106 -26 -21 -37 -22 -194 -20 -159 2
-161 2 -56 7 l109 6 23 40 c36 64 35 65 -77 65 -55 0 -100 3 -100 8 0 4 9 32
20 62 11 30 20 56 20 58 0 1 15 11 33 22 29 18 48 20 197 18 154 -2 158 -2 60
-7z"/>
<path d="M8432 2613 c-26 -24 -58 -94 -198 -443 -92 -228 -175 -436 -186 -462
l-18 -48 89 0 c144 0 122 -33 337 505 101 253 184 463 184 467 0 5 -40 8 -88
8 -81 0 -90 -2 -120 -27z"/>
<path d="M10289 858 c-14 -11 -119 -234 -119 -251 0 -9 42 -9 57 1 15 9 122
249 115 257 -9 9 -38 5 -53 -7z"/>
</g>
</svg>
